# xmcd
#
# Track frame offsets:
#	150
#	13638
#	28501
#	42557
#	57741
#	76058
#	83949
#	100945
#	115444
#	129440
#	147865
#	166671
#	177376
#	190010
#
# Disc length: 2737 seconds
#
# Revision: 0
# Processed by: cddbd v1.5.2PL0 Copyright (c) Steve Scherf et al.
# Submitted via: dBpowerAMP V4.0
#
DISCID=b60aaf0e
DTITLE=grupo rastro dotempo  - eu sou do sul
DYEAR=2008
DGENRE=Undefined
TTITLE0=Track01loira gelada
TTITLE1=Trarrasta peack02
TTITLE2=Track0prenda minha3
TTITLE3=Trackchinoca linda04
TTITLE4=Track0povo serrano5
TTITLE5=Track06parabens gaucho
TTITLE6=Track07eu sou do sul
TTITLE7=Track08alma do campeiro 
TTITLE8=Track09sol do meu coração
TTITLE9=Track10vivendo em galpão
TTITLE10=Track11a meia rédea
TTITLE11=Track12tio fieêncio
TTITLE12=Track13raça gauderio
TTITLE13=Track14millonga do amor sem fim
EXTD=
EXTT0=
EXTT1=
EXTT2=
EXTT3=
EXTT4=
EXTT5=
EXTT6=
EXTT7=
EXTT8=
EXTT9=
EXTT10=
EXTT11=
EXTT12=
EXTT13=
PLAYORDER=
